<mxfile host="app.diagrams.net" modified="2023-11-20T02:17:14.643Z" agent="Mozilla/5.0 (Windows NT 10.0; Win64; x64) AppleWebKit/537.36 (KHTML, like Gecko) Chrome/119.0.0.0 Safari/537.36" etag="hsznXX5BsK9vCdOyeW-E" version="22.1.2" type="google">
  <diagram id="C5RBs43oDa-KdzZeNtuy" name="Page-1">
    <mxGraphModel grid="1" page="1" gridSize="10" guides="1" tooltips="1" connect="1" arrows="1" fold="1" pageScale="1" pageWidth="1200" pageHeight="1920" math="0" shadow="0">
      <root>
        <mxCell id="WIyWlLk6GJQsqaUBKTNV-0" />
        <mxCell id="WIyWlLk6GJQsqaUBKTNV-1" parent="WIyWlLk6GJQsqaUBKTNV-0" />
        <mxCell id="hfUMV4JjxT8LaMkukJHo-105" value="" style="edgeStyle=orthogonalEdgeStyle;rounded=0;orthogonalLoop=1;jettySize=auto;html=1;" edge="1" parent="WIyWlLk6GJQsqaUBKTNV-1" target="hfUMV4JjxT8LaMkukJHo-104">
          <mxGeometry relative="1" as="geometry">
            <mxPoint x="2039" as="sourcePoint" />
          </mxGeometry>
        </mxCell>
        <mxCell id="hfUMV4JjxT8LaMkukJHo-83" value="로그인" style="ellipse;whiteSpace=wrap;html=1;" vertex="1" parent="WIyWlLk6GJQsqaUBKTNV-1">
          <mxGeometry x="1979" y="-80" width="120" height="80" as="geometry" />
        </mxCell>
        <mxCell id="hfUMV4JjxT8LaMkukJHo-98" value="모래수거 흐름도" style="shape=process;whiteSpace=wrap;html=1;backgroundOutline=1;size=0;" vertex="1" parent="WIyWlLk6GJQsqaUBKTNV-1">
          <mxGeometry x="-1560" y="-130" width="5100" height="30" as="geometry" />
        </mxCell>
        <mxCell id="hfUMV4JjxT8LaMkukJHo-99" value="사용자 구매 및 사용 관점" style="shape=process;whiteSpace=wrap;html=1;backgroundOutline=1;size=0;" vertex="1" parent="WIyWlLk6GJQsqaUBKTNV-1">
          <mxGeometry x="-1560" y="-100" width="2800" height="30" as="geometry" />
        </mxCell>
        <mxCell id="hfUMV4JjxT8LaMkukJHo-102" value="" style="endArrow=none;html=1;rounded=0;" edge="1" parent="WIyWlLk6GJQsqaUBKTNV-1" source="mL5LW55gpTMhC8oxr1yt-1">
          <mxGeometry width="50" height="50" relative="1" as="geometry">
            <mxPoint x="1240" y="1940" as="sourcePoint" />
            <mxPoint x="1240" y="-70" as="targetPoint" />
          </mxGeometry>
        </mxCell>
        <mxCell id="hfUMV4JjxT8LaMkukJHo-103" value="&amp;nbsp;운영자 관점" style="shape=process;whiteSpace=wrap;html=1;backgroundOutline=1;size=0;" vertex="1" parent="WIyWlLk6GJQsqaUBKTNV-1">
          <mxGeometry x="1240" y="-100" width="1690" height="30" as="geometry" />
        </mxCell>
        <mxCell id="3d2tBKjzDwxo3XAQTUSo-72" style="edgeStyle=orthogonalEdgeStyle;rounded=0;orthogonalLoop=1;jettySize=auto;html=1;entryX=0.5;entryY=0;entryDx=0;entryDy=0;" edge="1" parent="WIyWlLk6GJQsqaUBKTNV-1" source="hfUMV4JjxT8LaMkukJHo-104" target="3d2tBKjzDwxo3XAQTUSo-36">
          <mxGeometry relative="1" as="geometry" />
        </mxCell>
        <mxCell id="hfUMV4JjxT8LaMkukJHo-104" value="주문 관리" style="rounded=1;whiteSpace=wrap;html=1;" vertex="1" parent="WIyWlLk6GJQsqaUBKTNV-1">
          <mxGeometry x="1979" y="60" width="120" height="60" as="geometry" />
        </mxCell>
        <mxCell id="rPkNx3lefUZQREJ5seEW-12" style="edgeStyle=orthogonalEdgeStyle;rounded=0;orthogonalLoop=1;jettySize=auto;html=1;entryX=0.5;entryY=0;entryDx=0;entryDy=0;" edge="1" parent="WIyWlLk6GJQsqaUBKTNV-1" source="hfUMV4JjxT8LaMkukJHo-106" target="3d2tBKjzDwxo3XAQTUSo-114">
          <mxGeometry relative="1" as="geometry" />
        </mxCell>
        <mxCell id="hfUMV4JjxT8LaMkukJHo-106" value="모래수거 요청지" style="whiteSpace=wrap;html=1;rounded=1;" vertex="1" parent="WIyWlLk6GJQsqaUBKTNV-1">
          <mxGeometry x="1800" y="970" width="120" height="60" as="geometry" />
        </mxCell>
        <mxCell id="3d2tBKjzDwxo3XAQTUSo-127" value="" style="edgeStyle=orthogonalEdgeStyle;rounded=0;orthogonalLoop=1;jettySize=auto;html=1;entryX=0.5;entryY=0;entryDx=0;entryDy=0;" edge="1" parent="WIyWlLk6GJQsqaUBKTNV-1" source="hfUMV4JjxT8LaMkukJHo-305" target="3d2tBKjzDwxo3XAQTUSo-134">
          <mxGeometry relative="1" as="geometry">
            <mxPoint x="1680" y="1485" as="targetPoint" />
            <Array as="points" />
          </mxGeometry>
        </mxCell>
        <mxCell id="hfUMV4JjxT8LaMkukJHo-305" value="수거지 명단 확인&lt;br&gt;엑셀 다운로드" style="shape=document;whiteSpace=wrap;html=1;boundedLbl=1;" vertex="1" parent="WIyWlLk6GJQsqaUBKTNV-1">
          <mxGeometry x="2240" y="1330" width="120" height="80" as="geometry" />
        </mxCell>
        <mxCell id="hfUMV4JjxT8LaMkukJHo-308" value="수거기사" style="shape=process;whiteSpace=wrap;html=1;backgroundOutline=1;size=0;" vertex="1" parent="WIyWlLk6GJQsqaUBKTNV-1">
          <mxGeometry x="2930" y="-100" width="610" height="30" as="geometry" />
        </mxCell>
        <mxCell id="hfUMV4JjxT8LaMkukJHo-320" value="&lt;br&gt;배송기사로부터 수거처리되었다고 전달받았지만 사용자로부터 미수거처리되었다고 연락받았을 때&lt;br&gt;&lt;br&gt;&lt;br&gt;미수거 시 수거 고객과의 전화통화 후 미수거 사유 확인 후 복구 결정" style="text;html=1;strokeColor=#FF3333;fillColor=#FFFF33;align=center;verticalAlign=middle;whiteSpace=wrap;rounded=0;sketch=1;curveFitting=1;jiggle=2;" vertex="1" parent="WIyWlLk6GJQsqaUBKTNV-1">
          <mxGeometry x="2050" y="1500" width="240" height="150" as="geometry" />
        </mxCell>
        <mxCell id="hfUMV4JjxT8LaMkukJHo-351" value="" style="edgeStyle=orthogonalEdgeStyle;rounded=0;orthogonalLoop=1;jettySize=auto;html=1;" edge="1" parent="WIyWlLk6GJQsqaUBKTNV-1" target="hfUMV4JjxT8LaMkukJHo-350">
          <mxGeometry relative="1" as="geometry">
            <mxPoint x="3206" as="sourcePoint" />
          </mxGeometry>
        </mxCell>
        <mxCell id="hfUMV4JjxT8LaMkukJHo-355" style="edgeStyle=orthogonalEdgeStyle;rounded=0;orthogonalLoop=1;jettySize=auto;html=1;entryX=0.5;entryY=0;entryDx=0;entryDy=0;" edge="1" parent="WIyWlLk6GJQsqaUBKTNV-1" source="hfUMV4JjxT8LaMkukJHo-350" target="hfUMV4JjxT8LaMkukJHo-354">
          <mxGeometry relative="1" as="geometry" />
        </mxCell>
        <mxCell id="hfUMV4JjxT8LaMkukJHo-350" value="수거지 방문" style="rounded=1;whiteSpace=wrap;html=1;fillColor=#FFFFFF;strokeColor=#6c8ebf;" vertex="1" parent="WIyWlLk6GJQsqaUBKTNV-1">
          <mxGeometry x="3146" y="50" width="120" height="60" as="geometry" />
        </mxCell>
        <mxCell id="hfUMV4JjxT8LaMkukJHo-365" value="" style="edgeStyle=orthogonalEdgeStyle;rounded=0;orthogonalLoop=1;jettySize=auto;html=1;strokeColor=#FF3333;exitX=0;exitY=0.5;exitDx=0;exitDy=0;" edge="1" parent="WIyWlLk6GJQsqaUBKTNV-1" source="hfUMV4JjxT8LaMkukJHo-354" target="hfUMV4JjxT8LaMkukJHo-364">
          <mxGeometry relative="1" as="geometry" />
        </mxCell>
        <mxCell id="rPkNx3lefUZQREJ5seEW-53" value="YES" style="edgeLabel;html=1;align=center;verticalAlign=middle;resizable=0;points=[];" connectable="0" vertex="1" parent="hfUMV4JjxT8LaMkukJHo-365">
          <mxGeometry x="-0.3924" y="2" relative="1" as="geometry">
            <mxPoint as="offset" />
          </mxGeometry>
        </mxCell>
        <mxCell id="hfUMV4JjxT8LaMkukJHo-367" value="NO" style="edgeStyle=orthogonalEdgeStyle;rounded=0;orthogonalLoop=1;jettySize=auto;html=1;strokeColor=#FF3333;entryX=0.5;entryY=0;entryDx=0;entryDy=0;" edge="1" parent="WIyWlLk6GJQsqaUBKTNV-1" source="hfUMV4JjxT8LaMkukJHo-354" target="hfUMV4JjxT8LaMkukJHo-366">
          <mxGeometry x="-0.6686" relative="1" as="geometry">
            <mxPoint x="3090" y="470" as="targetPoint" />
            <mxPoint as="offset" />
          </mxGeometry>
        </mxCell>
        <mxCell id="hfUMV4JjxT8LaMkukJHo-354" value="수거 가능&lt;br&gt;여부 확인" style="rhombus;whiteSpace=wrap;html=1;fillColor=#FFFFFF;strokeColor=#6c8ebf;" vertex="1" parent="WIyWlLk6GJQsqaUBKTNV-1">
          <mxGeometry x="3158" y="200" width="96" height="80" as="geometry" />
        </mxCell>
        <mxCell id="hfUMV4JjxT8LaMkukJHo-359" value="수거자 명단 확인" style="ellipse;whiteSpace=wrap;html=1;fillColor=#FFFFFF;strokeColor=#6c8ebf;" vertex="1" parent="WIyWlLk6GJQsqaUBKTNV-1">
          <mxGeometry x="3146" y="-70" width="120" height="80" as="geometry" />
        </mxCell>
        <mxCell id="hfUMV4JjxT8LaMkukJHo-360" value="" style="endArrow=none;html=1;rounded=0;" edge="1" parent="WIyWlLk6GJQsqaUBKTNV-1">
          <mxGeometry width="50" height="50" relative="1" as="geometry">
            <mxPoint x="2940" y="1960" as="sourcePoint" />
            <mxPoint x="2930" y="-70" as="targetPoint" />
          </mxGeometry>
        </mxCell>
        <mxCell id="rPkNx3lefUZQREJ5seEW-56" style="edgeStyle=orthogonalEdgeStyle;rounded=0;orthogonalLoop=1;jettySize=auto;html=1;" edge="1" parent="WIyWlLk6GJQsqaUBKTNV-1" source="hfUMV4JjxT8LaMkukJHo-364" target="hfUMV4JjxT8LaMkukJHo-368">
          <mxGeometry relative="1" as="geometry" />
        </mxCell>
        <mxCell id="hfUMV4JjxT8LaMkukJHo-364" value="수거" style="rounded=1;whiteSpace=wrap;html=1;fillColor=#FFFFFF;strokeColor=#6c8ebf;" vertex="1" parent="WIyWlLk6GJQsqaUBKTNV-1">
          <mxGeometry x="3040" y="600" width="120" height="60" as="geometry" />
        </mxCell>
        <mxCell id="3d2tBKjzDwxo3XAQTUSo-277" style="edgeStyle=orthogonalEdgeStyle;rounded=0;orthogonalLoop=1;jettySize=auto;html=1;exitX=0.5;exitY=1;exitDx=0;exitDy=0;entryX=0.75;entryY=0;entryDx=0;entryDy=0;" edge="1" parent="WIyWlLk6GJQsqaUBKTNV-1" source="hfUMV4JjxT8LaMkukJHo-366" target="3d2tBKjzDwxo3XAQTUSo-274">
          <mxGeometry relative="1" as="geometry" />
        </mxCell>
        <mxCell id="hfUMV4JjxT8LaMkukJHo-366" value="해당 사용자 &lt;br&gt;미수거 체크" style="rounded=1;whiteSpace=wrap;html=1;fillColor=#FFFFFF;strokeColor=#6c8ebf;" vertex="1" parent="WIyWlLk6GJQsqaUBKTNV-1">
          <mxGeometry x="3260" y="995" width="120" height="60" as="geometry" />
        </mxCell>
        <mxCell id="3d2tBKjzDwxo3XAQTUSo-25" value="" style="edgeStyle=orthogonalEdgeStyle;rounded=0;orthogonalLoop=1;jettySize=auto;html=1;" edge="1" parent="WIyWlLk6GJQsqaUBKTNV-1">
          <mxGeometry relative="1" as="geometry">
            <mxPoint x="490" y="1170" as="sourcePoint" />
          </mxGeometry>
        </mxCell>
        <mxCell id="3d2tBKjzDwxo3XAQTUSo-31" value="" style="endArrow=none;html=1;rounded=0;" edge="1" parent="WIyWlLk6GJQsqaUBKTNV-1">
          <mxGeometry width="50" height="50" relative="1" as="geometry">
            <mxPoint x="3540" y="1960" as="sourcePoint" />
            <mxPoint x="3540" y="-84" as="targetPoint" />
          </mxGeometry>
        </mxCell>
        <mxCell id="3d2tBKjzDwxo3XAQTUSo-48" style="edgeStyle=orthogonalEdgeStyle;rounded=0;orthogonalLoop=1;jettySize=auto;html=1;" edge="1" parent="WIyWlLk6GJQsqaUBKTNV-1" source="3d2tBKjzDwxo3XAQTUSo-36" target="hfUMV4JjxT8LaMkukJHo-106">
          <mxGeometry relative="1" as="geometry">
            <Array as="points">
              <mxPoint x="1950" y="330" />
              <mxPoint x="1860" y="330" />
            </Array>
          </mxGeometry>
        </mxCell>
        <mxCell id="3d2tBKjzDwxo3XAQTUSo-50" style="edgeStyle=orthogonalEdgeStyle;rounded=0;orthogonalLoop=1;jettySize=auto;html=1;" edge="1" parent="WIyWlLk6GJQsqaUBKTNV-1" source="3d2tBKjzDwxo3XAQTUSo-36" target="3d2tBKjzDwxo3XAQTUSo-42">
          <mxGeometry relative="1" as="geometry">
            <Array as="points">
              <mxPoint x="2130" y="330" />
              <mxPoint x="2610" y="330" />
            </Array>
          </mxGeometry>
        </mxCell>
        <mxCell id="3d2tBKjzDwxo3XAQTUSo-36" value="" style="whiteSpace=wrap;html=1;rounded=0;shadow=0;comic=0;labelBackgroundColor=none;strokeWidth=1;fillColor=#000000;fontFamily=Verdana;fontSize=12;align=center;rotation=0;" vertex="1" parent="WIyWlLk6GJQsqaUBKTNV-1">
          <mxGeometry x="1919" y="230" width="240" height="10" as="geometry" />
        </mxCell>
        <mxCell id="3d2tBKjzDwxo3XAQTUSo-55" value="" style="edgeStyle=orthogonalEdgeStyle;rounded=0;orthogonalLoop=1;jettySize=auto;html=1;" edge="1" parent="WIyWlLk6GJQsqaUBKTNV-1" source="3d2tBKjzDwxo3XAQTUSo-42" target="3d2tBKjzDwxo3XAQTUSo-54">
          <mxGeometry relative="1" as="geometry" />
        </mxCell>
        <mxCell id="3d2tBKjzDwxo3XAQTUSo-42" value="주문 취소 리스트" style="rounded=1;whiteSpace=wrap;html=1;" vertex="1" parent="WIyWlLk6GJQsqaUBKTNV-1">
          <mxGeometry x="2550" y="970" width="120" height="60" as="geometry" />
        </mxCell>
        <mxCell id="3d2tBKjzDwxo3XAQTUSo-53" value="" style="endArrow=none;html=1;rounded=0;" edge="1" parent="WIyWlLk6GJQsqaUBKTNV-1" source="mL5LW55gpTMhC8oxr1yt-1">
          <mxGeometry width="50" height="50" relative="1" as="geometry">
            <mxPoint x="1240" y="1940" as="sourcePoint" />
            <mxPoint x="1241.1454545454544" y="220" as="targetPoint" />
          </mxGeometry>
        </mxCell>
        <mxCell id="3d2tBKjzDwxo3XAQTUSo-57" style="edgeStyle=orthogonalEdgeStyle;rounded=0;orthogonalLoop=1;jettySize=auto;html=1;entryX=0.5;entryY=0;entryDx=0;entryDy=0;" edge="1" parent="WIyWlLk6GJQsqaUBKTNV-1" source="3d2tBKjzDwxo3XAQTUSo-54" target="3d2tBKjzDwxo3XAQTUSo-56">
          <mxGeometry relative="1" as="geometry" />
        </mxCell>
        <mxCell id="3d2tBKjzDwxo3XAQTUSo-54" value="취소사유 확인" style="whiteSpace=wrap;html=1;rounded=1;" vertex="1" parent="WIyWlLk6GJQsqaUBKTNV-1">
          <mxGeometry x="2550" y="1145" width="120" height="60" as="geometry" />
        </mxCell>
        <mxCell id="3d2tBKjzDwxo3XAQTUSo-59" value="NO" style="edgeStyle=orthogonalEdgeStyle;rounded=0;orthogonalLoop=1;jettySize=auto;html=1;strokeColor=#FF3333;entryX=1;entryY=0.5;entryDx=0;entryDy=0;exitX=1;exitY=0.5;exitDx=0;exitDy=0;" edge="1" parent="WIyWlLk6GJQsqaUBKTNV-1" source="3d2tBKjzDwxo3XAQTUSo-56" target="3d2tBKjzDwxo3XAQTUSo-71">
          <mxGeometry relative="1" as="geometry">
            <mxPoint x="2810" y="1320" as="targetPoint" />
            <Array as="points">
              <mxPoint x="2740" y="1320" />
              <mxPoint x="2740" y="1850" />
            </Array>
          </mxGeometry>
        </mxCell>
        <mxCell id="3d2tBKjzDwxo3XAQTUSo-67" value="YES" style="edgeStyle=orthogonalEdgeStyle;rounded=0;orthogonalLoop=1;jettySize=auto;html=1;strokeColor=#FF3333;" edge="1" parent="WIyWlLk6GJQsqaUBKTNV-1" source="3d2tBKjzDwxo3XAQTUSo-56">
          <mxGeometry relative="1" as="geometry">
            <mxPoint x="2610" y="1420" as="targetPoint" />
          </mxGeometry>
        </mxCell>
        <mxCell id="3d2tBKjzDwxo3XAQTUSo-56" value="잔여 수거권&amp;nbsp;&lt;br&gt;여부 확인" style="rhombus;whiteSpace=wrap;html=1;rounded=1;" vertex="1" parent="WIyWlLk6GJQsqaUBKTNV-1">
          <mxGeometry x="2562" y="1280" width="96" height="80" as="geometry" />
        </mxCell>
        <mxCell id="3d2tBKjzDwxo3XAQTUSo-61" value="환불할 금액이 없을 시 0원으로 환불 처리 하면 다음 달 예약 결제 취소" style="text;html=1;strokeColor=#FF3333;fillColor=#FFFF33;align=center;verticalAlign=middle;whiteSpace=wrap;rounded=0;sketch=1;curveFitting=1;jiggle=2;" vertex="1" parent="WIyWlLk6GJQsqaUBKTNV-1">
          <mxGeometry x="2710" y="1160" width="200" height="100" as="geometry" />
        </mxCell>
        <mxCell id="3d2tBKjzDwxo3XAQTUSo-75" value="" style="edgeStyle=orthogonalEdgeStyle;rounded=0;orthogonalLoop=1;jettySize=auto;html=1;" edge="1" parent="WIyWlLk6GJQsqaUBKTNV-1" source="3d2tBKjzDwxo3XAQTUSo-66" target="3d2tBKjzDwxo3XAQTUSo-74">
          <mxGeometry relative="1" as="geometry" />
        </mxCell>
        <mxCell id="3d2tBKjzDwxo3XAQTUSo-66" value="관리자가 주문번호 별 잔여 수거권 환불금액 판단" style="rounded=1;whiteSpace=wrap;html=1;" vertex="1" parent="WIyWlLk6GJQsqaUBKTNV-1">
          <mxGeometry x="2550" y="1425" width="120" height="60" as="geometry" />
        </mxCell>
        <mxCell id="3d2tBKjzDwxo3XAQTUSo-71" value="취소 완료" style="ellipse;whiteSpace=wrap;html=1;aspect=fixed;fillColor=#000000;fontColor=#FFFFFF;" vertex="1" parent="WIyWlLk6GJQsqaUBKTNV-1">
          <mxGeometry x="2570" y="1810" width="80" height="80" as="geometry" />
        </mxCell>
        <mxCell id="3d2tBKjzDwxo3XAQTUSo-77" style="edgeStyle=orthogonalEdgeStyle;rounded=0;orthogonalLoop=1;jettySize=auto;html=1;entryX=0.5;entryY=0;entryDx=0;entryDy=0;" edge="1" parent="WIyWlLk6GJQsqaUBKTNV-1" source="3d2tBKjzDwxo3XAQTUSo-74" target="3d2tBKjzDwxo3XAQTUSo-71">
          <mxGeometry relative="1" as="geometry" />
        </mxCell>
        <mxCell id="3d2tBKjzDwxo3XAQTUSo-74" value="환불 금액 지정하여 &lt;br&gt;환불 진행" style="whiteSpace=wrap;html=1;rounded=1;" vertex="1" parent="WIyWlLk6GJQsqaUBKTNV-1">
          <mxGeometry x="2550" y="1525" width="120" height="60" as="geometry" />
        </mxCell>
        <mxCell id="3d2tBKjzDwxo3XAQTUSo-78" value="모래수거 명단 확인" style="text;html=1;strokeColor=default;fillColor=none;align=center;verticalAlign=middle;whiteSpace=wrap;rounded=0;" vertex="1" parent="WIyWlLk6GJQsqaUBKTNV-1">
          <mxGeometry x="1800" y="270" width="120" height="30" as="geometry" />
        </mxCell>
        <mxCell id="3d2tBKjzDwxo3XAQTUSo-79" value="해지 요청자 명단 확인" style="text;html=1;strokeColor=default;fillColor=none;align=center;verticalAlign=middle;whiteSpace=wrap;rounded=0;" vertex="1" parent="WIyWlLk6GJQsqaUBKTNV-1">
          <mxGeometry x="2252" y="270" width="120" height="30" as="geometry" />
        </mxCell>
        <mxCell id="3d2tBKjzDwxo3XAQTUSo-105" value="수거기사에 대한 내용은 시스템으로 만들어져 있지 않다.&lt;br&gt;&lt;br&gt;** 수거 기사에 대한 내용 예측 프로세스" style="text;html=1;strokeColor=#FF3333;fillColor=#FFFF33;align=center;verticalAlign=middle;whiteSpace=wrap;rounded=0;sketch=1;curveFitting=1;jiggle=2;" vertex="1" parent="WIyWlLk6GJQsqaUBKTNV-1">
          <mxGeometry x="3300" y="-60" width="240" height="120" as="geometry" />
        </mxCell>
        <mxCell id="3d2tBKjzDwxo3XAQTUSo-119" style="edgeStyle=orthogonalEdgeStyle;rounded=0;orthogonalLoop=1;jettySize=auto;html=1;entryX=0.5;entryY=0;entryDx=0;entryDy=0;exitX=0.25;exitY=1;exitDx=0;exitDy=0;" edge="1" parent="WIyWlLk6GJQsqaUBKTNV-1" source="3d2tBKjzDwxo3XAQTUSo-114" target="rPkNx3lefUZQREJ5seEW-38">
          <mxGeometry relative="1" as="geometry">
            <mxPoint x="1488" y="1315" as="targetPoint" />
          </mxGeometry>
        </mxCell>
        <mxCell id="rPkNx3lefUZQREJ5seEW-44" style="edgeStyle=orthogonalEdgeStyle;rounded=0;orthogonalLoop=1;jettySize=auto;html=1;exitX=0.75;exitY=1;exitDx=0;exitDy=0;" edge="1" parent="WIyWlLk6GJQsqaUBKTNV-1" source="3d2tBKjzDwxo3XAQTUSo-114" target="hfUMV4JjxT8LaMkukJHo-305">
          <mxGeometry relative="1" as="geometry" />
        </mxCell>
        <mxCell id="f3Tv7JB4kyNmLcIMs9Kd-9" style="edgeStyle=orthogonalEdgeStyle;rounded=0;orthogonalLoop=1;jettySize=auto;html=1;" edge="1" parent="WIyWlLk6GJQsqaUBKTNV-1" source="3d2tBKjzDwxo3XAQTUSo-114" target="rPkNx3lefUZQREJ5seEW-28">
          <mxGeometry relative="1" as="geometry" />
        </mxCell>
        <mxCell id="3d2tBKjzDwxo3XAQTUSo-114" value="" style="whiteSpace=wrap;html=1;rounded=0;shadow=0;comic=0;labelBackgroundColor=none;strokeWidth=1;fillColor=#000000;fontFamily=Verdana;fontSize=12;align=center;rotation=0;" vertex="1" parent="WIyWlLk6GJQsqaUBKTNV-1">
          <mxGeometry x="1739" y="1230" width="240" height="20" as="geometry" />
        </mxCell>
        <mxCell id="3d2tBKjzDwxo3XAQTUSo-311" value="USE" style="edgeStyle=orthogonalEdgeStyle;rounded=0;orthogonalLoop=1;jettySize=auto;html=1;entryX=0;entryY=0.5;entryDx=0;entryDy=0;strokeColor=#7F00FF;dashed=1;" edge="1" parent="WIyWlLk6GJQsqaUBKTNV-1" source="hfUMV4JjxT8LaMkukJHo-342" target="hfUMV4JjxT8LaMkukJHo-359">
          <mxGeometry x="-0.8819" relative="1" as="geometry">
            <Array as="points">
              <mxPoint x="2960" y="-30" />
            </Array>
            <mxPoint as="offset" />
          </mxGeometry>
        </mxCell>
        <mxCell id="3d2tBKjzDwxo3XAQTUSo-134" value="수거자 명단&lt;br style=&quot;border-color: var(--border-color);&quot;&gt;수거팀 전달" style="ellipse;whiteSpace=wrap;html=1;aspect=fixed;fillColor=#000000;fontColor=#FFFFFF;" vertex="1" parent="WIyWlLk6GJQsqaUBKTNV-1">
          <mxGeometry x="2260" y="1810" width="80" height="80" as="geometry" />
        </mxCell>
        <mxCell id="3d2tBKjzDwxo3XAQTUSo-224" style="edgeStyle=orthogonalEdgeStyle;rounded=0;orthogonalLoop=1;jettySize=auto;html=1;" edge="1" parent="WIyWlLk6GJQsqaUBKTNV-1" source="rPkNx3lefUZQREJ5seEW-28" target="3d2tBKjzDwxo3XAQTUSo-221">
          <mxGeometry relative="1" as="geometry" />
        </mxCell>
        <mxCell id="rPkNx3lefUZQREJ5seEW-28" value="수거 복구" style="rounded=1;whiteSpace=wrap;html=1;" vertex="1" parent="WIyWlLk6GJQsqaUBKTNV-1">
          <mxGeometry x="1799" y="1330" width="120" height="60" as="geometry" />
        </mxCell>
        <mxCell id="3d2tBKjzDwxo3XAQTUSo-227" style="edgeStyle=orthogonalEdgeStyle;rounded=0;orthogonalLoop=1;jettySize=auto;html=1;entryX=0.5;entryY=0;entryDx=0;entryDy=0;" edge="1" parent="WIyWlLk6GJQsqaUBKTNV-1" source="rPkNx3lefUZQREJ5seEW-38" target="3d2tBKjzDwxo3XAQTUSo-222">
          <mxGeometry relative="1" as="geometry" />
        </mxCell>
        <mxCell id="rPkNx3lefUZQREJ5seEW-38" value="수거권 상태 변경" style="rounded=1;whiteSpace=wrap;html=1;" vertex="1" parent="WIyWlLk6GJQsqaUBKTNV-1">
          <mxGeometry x="1370" y="1330" width="120" height="60" as="geometry" />
        </mxCell>
        <mxCell id="3d2tBKjzDwxo3XAQTUSo-231" value="NO&lt;br&gt;(타당하지 않음)" style="edgeStyle=orthogonalEdgeStyle;rounded=0;orthogonalLoop=1;jettySize=auto;html=1;entryX=1;entryY=0.5;entryDx=0;entryDy=0;strokeColor=#FF3333;exitX=0.5;exitY=1;exitDx=0;exitDy=0;" edge="1" parent="WIyWlLk6GJQsqaUBKTNV-1" source="3d2tBKjzDwxo3XAQTUSo-221" target="3d2tBKjzDwxo3XAQTUSo-226">
          <mxGeometry x="-0.9184" relative="1" as="geometry">
            <mxPoint as="offset" />
          </mxGeometry>
        </mxCell>
        <mxCell id="3d2tBKjzDwxo3XAQTUSo-236" value="YES&lt;br&gt;(타당함)" style="edgeStyle=orthogonalEdgeStyle;rounded=0;orthogonalLoop=1;jettySize=auto;html=1;entryX=0.5;entryY=0;entryDx=0;entryDy=0;strokeColor=#FF3333;" edge="1" parent="WIyWlLk6GJQsqaUBKTNV-1" source="3d2tBKjzDwxo3XAQTUSo-221" target="3d2tBKjzDwxo3XAQTUSo-225">
          <mxGeometry x="0.5556" relative="1" as="geometry">
            <mxPoint as="offset" />
          </mxGeometry>
        </mxCell>
        <mxCell id="3d2tBKjzDwxo3XAQTUSo-221" value="미수거 사유 확인" style="rhombus;whiteSpace=wrap;html=1;rounded=1;" vertex="1" parent="WIyWlLk6GJQsqaUBKTNV-1">
          <mxGeometry x="1809" y="1510" width="100" height="80" as="geometry" />
        </mxCell>
        <mxCell id="3d2tBKjzDwxo3XAQTUSo-229" value="YES" style="edgeStyle=orthogonalEdgeStyle;rounded=0;orthogonalLoop=1;jettySize=auto;html=1;entryX=0;entryY=0.5;entryDx=0;entryDy=0;strokeColor=#FF3333;" edge="1" parent="WIyWlLk6GJQsqaUBKTNV-1" source="3d2tBKjzDwxo3XAQTUSo-222" target="3d2tBKjzDwxo3XAQTUSo-226">
          <mxGeometry relative="1" as="geometry">
            <Array as="points">
              <mxPoint x="1360" y="1550" />
              <mxPoint x="1360" y="1850" />
            </Array>
          </mxGeometry>
        </mxCell>
        <mxCell id="3d2tBKjzDwxo3XAQTUSo-234" value="NO" style="edgeStyle=orthogonalEdgeStyle;rounded=0;orthogonalLoop=1;jettySize=auto;html=1;entryX=0;entryY=0.5;entryDx=0;entryDy=0;strokeColor=#FF3333;" edge="1" parent="WIyWlLk6GJQsqaUBKTNV-1" source="3d2tBKjzDwxo3XAQTUSo-222" target="3d2tBKjzDwxo3XAQTUSo-221">
          <mxGeometry relative="1" as="geometry" />
        </mxCell>
        <mxCell id="3d2tBKjzDwxo3XAQTUSo-222" value="수거 여부" style="rhombus;whiteSpace=wrap;html=1;rounded=1;" vertex="1" parent="WIyWlLk6GJQsqaUBKTNV-1">
          <mxGeometry x="1380" y="1510" width="100" height="80" as="geometry" />
        </mxCell>
        <mxCell id="3d2tBKjzDwxo3XAQTUSo-225" value="복구" style="ellipse;whiteSpace=wrap;html=1;aspect=fixed;fillColor=#000000;fontColor=#FFFFFF;" vertex="1" parent="WIyWlLk6GJQsqaUBKTNV-1">
          <mxGeometry x="1970" y="1810" width="80" height="80" as="geometry" />
        </mxCell>
        <mxCell id="3d2tBKjzDwxo3XAQTUSo-226" value="수거 확인" style="ellipse;whiteSpace=wrap;html=1;aspect=fixed;fillColor=#000000;fontColor=#FFFFFF;" vertex="1" parent="WIyWlLk6GJQsqaUBKTNV-1">
          <mxGeometry x="1390" y="1810" width="80" height="80" as="geometry" />
        </mxCell>
        <mxCell id="hfUMV4JjxT8LaMkukJHo-368" value="해당 사용자&lt;br&gt;수거 체크" style="rounded=1;whiteSpace=wrap;html=1;fillColor=#FFFFFF;strokeColor=#6c8ebf;" vertex="1" parent="WIyWlLk6GJQsqaUBKTNV-1">
          <mxGeometry x="3040" y="995" width="120" height="60" as="geometry" />
        </mxCell>
        <mxCell id="f3Tv7JB4kyNmLcIMs9Kd-13" value="RETURN" style="edgeStyle=orthogonalEdgeStyle;rounded=0;orthogonalLoop=1;jettySize=auto;html=1;entryX=1;entryY=0.25;entryDx=0;entryDy=0;dashed=1;strokeColor=#7F00FF;" edge="1" parent="WIyWlLk6GJQsqaUBKTNV-1" source="3d2tBKjzDwxo3XAQTUSo-242" target="hfUMV4JjxT8LaMkukJHo-342">
          <mxGeometry x="0.6623" relative="1" as="geometry">
            <Array as="points">
              <mxPoint x="3030" y="1850" />
              <mxPoint x="3030" y="790" />
            </Array>
            <mxPoint as="offset" />
          </mxGeometry>
        </mxCell>
        <mxCell id="3d2tBKjzDwxo3XAQTUSo-242" value="관리자에게 &lt;br&gt;수거 명단 전달" style="ellipse;whiteSpace=wrap;html=1;aspect=fixed;fillColor=#000000;strokeColor=#6c8ebf;fontColor=#FFFFFF;" vertex="1" parent="WIyWlLk6GJQsqaUBKTNV-1">
          <mxGeometry x="3166" y="1810" width="80" height="80" as="geometry" />
        </mxCell>
        <mxCell id="3d2tBKjzDwxo3XAQTUSo-272" value="" style="whiteSpace=wrap;html=1;rounded=0;shadow=0;comic=0;labelBackgroundColor=none;strokeWidth=1;fillColor=#000000;fontFamily=Verdana;fontSize=12;align=center;rotation=0;" vertex="1" parent="WIyWlLk6GJQsqaUBKTNV-1">
          <mxGeometry x="3086" y="150" width="240" height="10" as="geometry" />
        </mxCell>
        <mxCell id="3d2tBKjzDwxo3XAQTUSo-281" style="edgeStyle=orthogonalEdgeStyle;rounded=0;orthogonalLoop=1;jettySize=auto;html=1;exitX=0.5;exitY=1;exitDx=0;exitDy=0;entryX=0.5;entryY=0;entryDx=0;entryDy=0;" edge="1" parent="WIyWlLk6GJQsqaUBKTNV-1" source="3d2tBKjzDwxo3XAQTUSo-274" target="3d2tBKjzDwxo3XAQTUSo-279">
          <mxGeometry relative="1" as="geometry" />
        </mxCell>
        <mxCell id="3d2tBKjzDwxo3XAQTUSo-274" value="" style="whiteSpace=wrap;html=1;rounded=0;shadow=0;comic=0;labelBackgroundColor=none;strokeWidth=1;fillColor=#000000;fontFamily=Verdana;fontSize=12;align=center;rotation=0;" vertex="1" parent="WIyWlLk6GJQsqaUBKTNV-1">
          <mxGeometry x="3086" y="1160" width="240" height="10" as="geometry" />
        </mxCell>
        <mxCell id="3d2tBKjzDwxo3XAQTUSo-276" style="edgeStyle=orthogonalEdgeStyle;rounded=0;orthogonalLoop=1;jettySize=auto;html=1;exitX=0.5;exitY=1;exitDx=0;exitDy=0;entryX=0.25;entryY=0;entryDx=0;entryDy=0;" edge="1" parent="WIyWlLk6GJQsqaUBKTNV-1" source="hfUMV4JjxT8LaMkukJHo-368" target="3d2tBKjzDwxo3XAQTUSo-274">
          <mxGeometry relative="1" as="geometry">
            <mxPoint x="3200" y="1120" as="targetPoint" />
          </mxGeometry>
        </mxCell>
        <mxCell id="3d2tBKjzDwxo3XAQTUSo-283" value="YES" style="edgeStyle=orthogonalEdgeStyle;rounded=0;orthogonalLoop=1;jettySize=auto;html=1;exitX=1;exitY=0.5;exitDx=0;exitDy=0;entryX=1;entryY=0.5;entryDx=0;entryDy=0;strokeColor=#FF3333;" edge="1" parent="WIyWlLk6GJQsqaUBKTNV-1" source="3d2tBKjzDwxo3XAQTUSo-279" target="hfUMV4JjxT8LaMkukJHo-350">
          <mxGeometry x="-0.9677" relative="1" as="geometry">
            <mxPoint x="3390" y="69.99999999999955" as="targetPoint" />
            <Array as="points">
              <mxPoint x="3450" y="1310" />
              <mxPoint x="3450" y="80" />
            </Array>
            <mxPoint as="offset" />
          </mxGeometry>
        </mxCell>
        <mxCell id="3d2tBKjzDwxo3XAQTUSo-279" value="다음 수거지" style="rhombus;whiteSpace=wrap;html=1;rounded=1;" vertex="1" parent="WIyWlLk6GJQsqaUBKTNV-1">
          <mxGeometry x="3158" y="1270" width="96" height="80" as="geometry" />
        </mxCell>
        <mxCell id="3d2tBKjzDwxo3XAQTUSo-282" value="NO" style="edgeStyle=orthogonalEdgeStyle;rounded=0;orthogonalLoop=1;jettySize=auto;html=1;exitX=0.5;exitY=1;exitDx=0;exitDy=0;strokeColor=#FF3333;" edge="1" parent="WIyWlLk6GJQsqaUBKTNV-1" source="3d2tBKjzDwxo3XAQTUSo-279" target="3d2tBKjzDwxo3XAQTUSo-242">
          <mxGeometry x="-0.8" relative="1" as="geometry">
            <mxPoint x="3216" y="1180" as="sourcePoint" />
            <mxPoint x="3216" y="1280" as="targetPoint" />
            <mxPoint as="offset" />
          </mxGeometry>
        </mxCell>
        <mxCell id="EmjIf0o4EKdm99o1xQy6-0" value="" style="edgeStyle=orthogonalEdgeStyle;rounded=0;orthogonalLoop=1;jettySize=auto;html=1;" edge="1" parent="WIyWlLk6GJQsqaUBKTNV-1" source="EmjIf0o4EKdm99o1xQy6-1" target="EmjIf0o4EKdm99o1xQy6-3">
          <mxGeometry relative="1" as="geometry" />
        </mxCell>
        <mxCell id="EmjIf0o4EKdm99o1xQy6-1" value="로그인" style="ellipse;whiteSpace=wrap;html=1;" vertex="1" parent="WIyWlLk6GJQsqaUBKTNV-1">
          <mxGeometry x="-35.139999999999986" y="-50" width="120" height="80" as="geometry" />
        </mxCell>
        <mxCell id="EmjIf0o4EKdm99o1xQy6-2" style="edgeStyle=orthogonalEdgeStyle;rounded=0;orthogonalLoop=1;jettySize=auto;html=1;entryX=0.5;entryY=0;entryDx=0;entryDy=0;" edge="1" parent="WIyWlLk6GJQsqaUBKTNV-1" source="EmjIf0o4EKdm99o1xQy6-3" target="EmjIf0o4EKdm99o1xQy6-19">
          <mxGeometry relative="1" as="geometry">
            <mxPoint x="24.860000000000014" y="290" as="targetPoint" />
          </mxGeometry>
        </mxCell>
        <mxCell id="EmjIf0o4EKdm99o1xQy6-3" value="메인 화면" style="rounded=1;whiteSpace=wrap;html=1;" vertex="1" parent="WIyWlLk6GJQsqaUBKTNV-1">
          <mxGeometry x="-35.139999999999986" y="100" width="120" height="60" as="geometry" />
        </mxCell>
        <mxCell id="EmjIf0o4EKdm99o1xQy6-4" value="수거 요청 수정은&amp;nbsp;&lt;br&gt;배출확인 전까지 가능" style="text;html=1;strokeColor=#FF3333;fillColor=#FFFF33;align=center;verticalAlign=middle;whiteSpace=wrap;rounded=0;sketch=1;curveFitting=1;jiggle=2;" vertex="1" parent="WIyWlLk6GJQsqaUBKTNV-1">
          <mxGeometry x="760" y="935" width="120" height="60" as="geometry" />
        </mxCell>
        <mxCell id="EmjIf0o4EKdm99o1xQy6-5" value="" style="edgeStyle=orthogonalEdgeStyle;rounded=0;orthogonalLoop=1;jettySize=auto;html=1;" edge="1" parent="WIyWlLk6GJQsqaUBKTNV-1" source="EmjIf0o4EKdm99o1xQy6-6" target="EmjIf0o4EKdm99o1xQy6-8">
          <mxGeometry relative="1" as="geometry" />
        </mxCell>
        <mxCell id="EmjIf0o4EKdm99o1xQy6-6" value="쇼핑" style="whiteSpace=wrap;html=1;rounded=1;" vertex="1" parent="WIyWlLk6GJQsqaUBKTNV-1">
          <mxGeometry x="-880" y="800" width="120" height="60" as="geometry" />
        </mxCell>
        <mxCell id="EmjIf0o4EKdm99o1xQy6-7" value="" style="edgeStyle=orthogonalEdgeStyle;rounded=0;orthogonalLoop=1;jettySize=auto;html=1;" edge="1" parent="WIyWlLk6GJQsqaUBKTNV-1" source="EmjIf0o4EKdm99o1xQy6-8">
          <mxGeometry relative="1" as="geometry">
            <mxPoint x="-820" y="1070" as="targetPoint" />
          </mxGeometry>
        </mxCell>
        <mxCell id="EmjIf0o4EKdm99o1xQy6-8" value="모래수거 수거권&lt;br&gt;상품선택" style="whiteSpace=wrap;html=1;rounded=1;" vertex="1" parent="WIyWlLk6GJQsqaUBKTNV-1">
          <mxGeometry x="-880" y="940" width="120" height="60" as="geometry" />
        </mxCell>
        <mxCell id="EmjIf0o4EKdm99o1xQy6-9" value="YES" style="edgeStyle=orthogonalEdgeStyle;rounded=0;orthogonalLoop=1;jettySize=auto;html=1;strokeColor=#FF3333;" edge="1" parent="WIyWlLk6GJQsqaUBKTNV-1" source="EmjIf0o4EKdm99o1xQy6-11" target="EmjIf0o4EKdm99o1xQy6-13">
          <mxGeometry relative="1" as="geometry" />
        </mxCell>
        <mxCell id="EmjIf0o4EKdm99o1xQy6-10" value="NO" style="edgeStyle=orthogonalEdgeStyle;rounded=0;orthogonalLoop=1;jettySize=auto;html=1;entryX=0;entryY=0.5;entryDx=0;entryDy=0;strokeColor=#FF3333;exitX=0;exitY=0.5;exitDx=0;exitDy=0;" edge="1" parent="WIyWlLk6GJQsqaUBKTNV-1" source="EmjIf0o4EKdm99o1xQy6-11" target="EmjIf0o4EKdm99o1xQy6-6">
          <mxGeometry relative="1" as="geometry">
            <Array as="points">
              <mxPoint x="-940" y="1110" />
              <mxPoint x="-940" y="830" />
            </Array>
          </mxGeometry>
        </mxCell>
        <mxCell id="EmjIf0o4EKdm99o1xQy6-11" value="구매하기" style="rhombus;whiteSpace=wrap;html=1;rounded=1;" vertex="1" parent="WIyWlLk6GJQsqaUBKTNV-1">
          <mxGeometry x="-868" y="1070" width="96" height="80" as="geometry" />
        </mxCell>
        <mxCell id="EmjIf0o4EKdm99o1xQy6-12" value="" style="edgeStyle=orthogonalEdgeStyle;rounded=0;orthogonalLoop=1;jettySize=auto;html=1;" edge="1" parent="WIyWlLk6GJQsqaUBKTNV-1" source="EmjIf0o4EKdm99o1xQy6-13" target="EmjIf0o4EKdm99o1xQy6-15">
          <mxGeometry relative="1" as="geometry" />
        </mxCell>
        <mxCell id="EmjIf0o4EKdm99o1xQy6-13" value="배송 정보 입력" style="rounded=1;whiteSpace=wrap;html=1;" vertex="1" parent="WIyWlLk6GJQsqaUBKTNV-1">
          <mxGeometry x="-880" y="1240" width="120" height="60" as="geometry" />
        </mxCell>
        <mxCell id="EmjIf0o4EKdm99o1xQy6-14" value="" style="edgeStyle=orthogonalEdgeStyle;rounded=0;orthogonalLoop=1;jettySize=auto;html=1;" edge="1" parent="WIyWlLk6GJQsqaUBKTNV-1" source="EmjIf0o4EKdm99o1xQy6-15" target="EmjIf0o4EKdm99o1xQy6-54">
          <mxGeometry relative="1" as="geometry">
            <mxPoint x="-820" y="1540" as="targetPoint" />
          </mxGeometry>
        </mxCell>
        <mxCell id="EmjIf0o4EKdm99o1xQy6-15" value="결제 정보 입력" style="whiteSpace=wrap;html=1;rounded=1;" vertex="1" parent="WIyWlLk6GJQsqaUBKTNV-1">
          <mxGeometry x="-880" y="1380" width="120" height="60" as="geometry" />
        </mxCell>
        <mxCell id="mL5LW55gpTMhC8oxr1yt-3" value="RETURN" style="edgeStyle=orthogonalEdgeStyle;rounded=0;orthogonalLoop=1;jettySize=auto;html=1;exitX=1;exitY=0.5;exitDx=0;exitDy=0;dashed=1;strokeColor=#7F00FF;fillColor=#ffe6cc;" edge="1" parent="WIyWlLk6GJQsqaUBKTNV-1" source="EmjIf0o4EKdm99o1xQy6-17" target="mL5LW55gpTMhC8oxr1yt-1">
          <mxGeometry x="0.8845" relative="1" as="geometry">
            <mxPoint x="100" y="2090" as="targetPoint" />
            <Array as="points">
              <mxPoint x="-180" y="1870" />
              <mxPoint x="-180" y="1920" />
              <mxPoint x="1090" y="1920" />
              <mxPoint x="1090" y="750" />
            </Array>
            <mxPoint as="offset" />
          </mxGeometry>
        </mxCell>
        <mxCell id="EmjIf0o4EKdm99o1xQy6-70" style="edgeStyle=orthogonalEdgeStyle;rounded=0;orthogonalLoop=1;jettySize=auto;html=1;entryX=0.5;entryY=0;entryDx=0;entryDy=0;strokeColor=#FF0D0D;" edge="1" parent="WIyWlLk6GJQsqaUBKTNV-1" source="EmjIf0o4EKdm99o1xQy6-19" target="EmjIf0o4EKdm99o1xQy6-64">
          <mxGeometry relative="1" as="geometry" />
        </mxCell>
        <mxCell id="EmjIf0o4EKdm99o1xQy6-71" value="NO&lt;br&gt;(잔여 수거권 없음)" style="edgeLabel;html=1;align=center;verticalAlign=middle;resizable=0;points=[];" vertex="1" connectable="0" parent="EmjIf0o4EKdm99o1xQy6-70">
          <mxGeometry x="-0.7459" y="-2" relative="1" as="geometry">
            <mxPoint as="offset" />
          </mxGeometry>
        </mxCell>
        <mxCell id="EmjIf0o4EKdm99o1xQy6-19" value="모래수거 서비스 잔여 횟수 확인" style="rhombus;whiteSpace=wrap;html=1;rounded=1;" vertex="1" parent="WIyWlLk6GJQsqaUBKTNV-1">
          <mxGeometry x="-25.139999999999986" y="240" width="100" height="80" as="geometry" />
        </mxCell>
        <mxCell id="EmjIf0o4EKdm99o1xQy6-21" value="NO&lt;br&gt;(해지)" style="edgeStyle=orthogonalEdgeStyle;rounded=0;orthogonalLoop=1;jettySize=auto;html=1;entryX=0.5;entryY=0;entryDx=0;entryDy=0;" edge="1" parent="WIyWlLk6GJQsqaUBKTNV-1" source="EmjIf0o4EKdm99o1xQy6-22" target="EmjIf0o4EKdm99o1xQy6-40">
          <mxGeometry x="-0.8008" relative="1" as="geometry">
            <Array as="points">
              <mxPoint x="250" y="780" />
              <mxPoint x="-180" y="780" />
            </Array>
            <mxPoint as="offset" />
          </mxGeometry>
        </mxCell>
        <mxCell id="w7Ox92A5aqky2tJf7LNV-317" value="YES&lt;br&gt;신청,수정&lt;br&gt;배출확인" style="edgeStyle=orthogonalEdgeStyle;rounded=0;orthogonalLoop=1;jettySize=auto;html=1;" edge="1" parent="WIyWlLk6GJQsqaUBKTNV-1" source="EmjIf0o4EKdm99o1xQy6-22">
          <mxGeometry x="-0.7798" relative="1" as="geometry">
            <mxPoint x="690" y="870" as="targetPoint" />
            <Array as="points">
              <mxPoint x="390" y="780" />
              <mxPoint x="690" y="780" />
              <mxPoint x="690" y="870" />
            </Array>
            <mxPoint as="offset" />
          </mxGeometry>
        </mxCell>
        <mxCell id="EmjIf0o4EKdm99o1xQy6-22" value="" style="whiteSpace=wrap;html=1;rounded=0;shadow=0;comic=0;labelBackgroundColor=none;strokeWidth=1;fillColor=#000000;fontFamily=Verdana;fontSize=12;align=center;rotation=0;" vertex="1" parent="WIyWlLk6GJQsqaUBKTNV-1">
          <mxGeometry x="190" y="610" width="250" height="10" as="geometry" />
        </mxCell>
        <mxCell id="w7Ox92A5aqky2tJf7LNV-326" value="" style="edgeStyle=orthogonalEdgeStyle;rounded=0;orthogonalLoop=1;jettySize=auto;html=1;" edge="1" parent="WIyWlLk6GJQsqaUBKTNV-1" source="EmjIf0o4EKdm99o1xQy6-24" target="EmjIf0o4EKdm99o1xQy6-29">
          <mxGeometry relative="1" as="geometry" />
        </mxCell>
        <mxCell id="EmjIf0o4EKdm99o1xQy6-24" value="수거요청" style="whiteSpace=wrap;html=1;rounded=1;" vertex="1" parent="WIyWlLk6GJQsqaUBKTNV-1">
          <mxGeometry x="400" y="930" width="120" height="60" as="geometry" />
        </mxCell>
        <mxCell id="w7Ox92A5aqky2tJf7LNV-354" value="" style="edgeStyle=orthogonalEdgeStyle;rounded=0;orthogonalLoop=1;jettySize=auto;html=1;" edge="1" parent="WIyWlLk6GJQsqaUBKTNV-1" source="EmjIf0o4EKdm99o1xQy6-29" target="w7Ox92A5aqky2tJf7LNV-322">
          <mxGeometry relative="1" as="geometry" />
        </mxCell>
        <mxCell id="EmjIf0o4EKdm99o1xQy6-29" value="수거요청 팝업" style="whiteSpace=wrap;html=1;rounded=1;" vertex="1" parent="WIyWlLk6GJQsqaUBKTNV-1">
          <mxGeometry x="400" y="1080" width="120" height="60" as="geometry" />
        </mxCell>
        <mxCell id="f3Tv7JB4kyNmLcIMs9Kd-8" style="edgeStyle=orthogonalEdgeStyle;rounded=0;orthogonalLoop=1;jettySize=auto;html=1;" edge="1" parent="WIyWlLk6GJQsqaUBKTNV-1" source="EmjIf0o4EKdm99o1xQy6-30" target="EmjIf0o4EKdm99o1xQy6-17">
          <mxGeometry relative="1" as="geometry" />
        </mxCell>
        <mxCell id="EmjIf0o4EKdm99o1xQy6-30" value="해지 사유 선택" style="rounded=1;whiteSpace=wrap;html=1;" vertex="1" parent="WIyWlLk6GJQsqaUBKTNV-1">
          <mxGeometry x="-240" y="1290" width="120" height="60" as="geometry" />
        </mxCell>
        <mxCell id="w7Ox92A5aqky2tJf7LNV-363" style="edgeStyle=orthogonalEdgeStyle;rounded=0;orthogonalLoop=1;jettySize=auto;html=1;entryX=0.5;entryY=0;entryDx=0;entryDy=0;" edge="1" parent="WIyWlLk6GJQsqaUBKTNV-1" source="EmjIf0o4EKdm99o1xQy6-40" target="w7Ox92A5aqky2tJf7LNV-362">
          <mxGeometry relative="1" as="geometry" />
        </mxCell>
        <mxCell id="EmjIf0o4EKdm99o1xQy6-40" value="해지 요청" style="rounded=1;whiteSpace=wrap;html=1;" vertex="1" parent="WIyWlLk6GJQsqaUBKTNV-1">
          <mxGeometry x="-240" y="792.5" width="120" height="60" as="geometry" />
        </mxCell>
        <mxCell id="3d2tBKjzDwxo3XAQTUSo-302" style="edgeStyle=orthogonalEdgeStyle;rounded=0;orthogonalLoop=1;jettySize=auto;html=1;entryX=0;entryY=0.5;entryDx=0;entryDy=0;strokeColor=#3333FF;" edge="1" parent="WIyWlLk6GJQsqaUBKTNV-1" source="EmjIf0o4EKdm99o1xQy6-17" target="EmjIf0o4EKdm99o1xQy6-3">
          <mxGeometry relative="1" as="geometry">
            <Array as="points">
              <mxPoint x="-180" y="1990" />
              <mxPoint x="-1530" y="1990" />
              <mxPoint x="-1530" y="130" />
            </Array>
          </mxGeometry>
        </mxCell>
        <mxCell id="mL5LW55gpTMhC8oxr1yt-11" value="RETURN" style="edgeStyle=orthogonalEdgeStyle;rounded=0;orthogonalLoop=1;jettySize=auto;html=1;dashed=1;entryX=0;entryY=0.5;entryDx=0;entryDy=0;strokeColor=#7F00FF;fillColor=#ffe6cc;" edge="1" parent="WIyWlLk6GJQsqaUBKTNV-1" source="EmjIf0o4EKdm99o1xQy6-46" target="mL5LW55gpTMhC8oxr1yt-10">
          <mxGeometry x="0.8278" relative="1" as="geometry">
            <Array as="points">
              <mxPoint x="1150" y="1860" />
              <mxPoint x="1150" y="1000" />
            </Array>
            <mxPoint x="1160" y="990" as="targetPoint" />
            <mxPoint y="1" as="offset" />
          </mxGeometry>
        </mxCell>
        <mxCell id="EmjIf0o4EKdm99o1xQy6-46" value="수거신청 완료" style="ellipse;whiteSpace=wrap;html=1;aspect=fixed;fillColor=#000000;fontColor=#FFFFFF;" vertex="1" parent="WIyWlLk6GJQsqaUBKTNV-1">
          <mxGeometry x="649.5" y="1820" width="81" height="80" as="geometry" />
        </mxCell>
        <mxCell id="w7Ox92A5aqky2tJf7LNV-348" value="" style="edgeStyle=orthogonalEdgeStyle;rounded=0;orthogonalLoop=1;jettySize=auto;html=1;" edge="1" parent="WIyWlLk6GJQsqaUBKTNV-1" source="EmjIf0o4EKdm99o1xQy6-51" target="w7Ox92A5aqky2tJf7LNV-336">
          <mxGeometry relative="1" as="geometry" />
        </mxCell>
        <mxCell id="EmjIf0o4EKdm99o1xQy6-51" value="수거요청 수정" style="whiteSpace=wrap;html=1;rounded=1;" vertex="1" parent="WIyWlLk6GJQsqaUBKTNV-1">
          <mxGeometry x="630" y="930" width="120" height="60" as="geometry" />
        </mxCell>
        <mxCell id="EmjIf0o4EKdm99o1xQy6-52" value="YES&lt;br&gt;(성공)" style="edgeStyle=orthogonalEdgeStyle;rounded=0;orthogonalLoop=1;jettySize=auto;html=1;strokeColor=#FF3333;exitX=0.5;exitY=1;exitDx=0;exitDy=0;" edge="1" parent="WIyWlLk6GJQsqaUBKTNV-1" source="EmjIf0o4EKdm99o1xQy6-54" target="EmjIf0o4EKdm99o1xQy6-55">
          <mxGeometry x="-0.6048" relative="1" as="geometry">
            <mxPoint as="offset" />
          </mxGeometry>
        </mxCell>
        <mxCell id="EmjIf0o4EKdm99o1xQy6-53" value="NO&lt;br&gt;(실패)" style="edgeStyle=orthogonalEdgeStyle;rounded=0;orthogonalLoop=1;jettySize=auto;html=1;entryX=1;entryY=0.5;entryDx=0;entryDy=0;strokeColor=#FF3333;exitX=1;exitY=0.5;exitDx=0;exitDy=0;" edge="1" parent="WIyWlLk6GJQsqaUBKTNV-1" source="EmjIf0o4EKdm99o1xQy6-54" target="EmjIf0o4EKdm99o1xQy6-11">
          <mxGeometry relative="1" as="geometry">
            <Array as="points">
              <mxPoint x="-700.0000000000001" y="1580" />
              <mxPoint x="-700.0000000000001" y="1110" />
            </Array>
          </mxGeometry>
        </mxCell>
        <mxCell id="EmjIf0o4EKdm99o1xQy6-54" value="결제 진행" style="rhombus;whiteSpace=wrap;html=1;rounded=1;" vertex="1" parent="WIyWlLk6GJQsqaUBKTNV-1">
          <mxGeometry x="-870" y="1540" width="100" height="80" as="geometry" />
        </mxCell>
        <mxCell id="EmjIf0o4EKdm99o1xQy6-56" value="YES&lt;br style=&quot;border-color: var(--border-color);&quot;&gt;(잔여 수거권 있음)" style="edgeStyle=orthogonalEdgeStyle;rounded=0;orthogonalLoop=1;jettySize=auto;html=1;entryX=0.5;entryY=0;entryDx=0;entryDy=0;strokeColor=#FF0000;" edge="1" parent="WIyWlLk6GJQsqaUBKTNV-1" target="EmjIf0o4EKdm99o1xQy6-22">
          <mxGeometry x="-0.6471" relative="1" as="geometry">
            <mxPoint x="149.85999999999967" y="620" as="targetPoint" />
            <mxPoint as="offset" />
            <mxPoint x="74.85999999999967" y="270" as="sourcePoint" />
          </mxGeometry>
        </mxCell>
        <mxCell id="EmjIf0o4EKdm99o1xQy6-60" value="재구매&amp;nbsp;" style="ellipse;whiteSpace=wrap;html=1;rounded=1;fillColor=#000000;fontColor=#FFFFFF;" vertex="1" parent="WIyWlLk6GJQsqaUBKTNV-1">
          <mxGeometry x="-1110" y="1840" width="80" height="80" as="geometry" />
        </mxCell>
        <mxCell id="EmjIf0o4EKdm99o1xQy6-61" value="쇼핑 시 안내 했던 내용에 대해&amp;nbsp;&lt;br&gt;한 번 더 안내" style="text;html=1;strokeColor=#FF3333;fillColor=#FFFF33;align=center;verticalAlign=middle;whiteSpace=wrap;rounded=0;sketch=1;curveFitting=1;jiggle=2;" vertex="1" parent="WIyWlLk6GJQsqaUBKTNV-1">
          <mxGeometry x="320.0000000000001" y="1590" width="250" height="110" as="geometry" />
        </mxCell>
        <mxCell id="EmjIf0o4EKdm99o1xQy6-63" value="NO" style="edgeStyle=orthogonalEdgeStyle;rounded=0;orthogonalLoop=1;jettySize=auto;html=1;exitX=1;exitY=0.5;exitDx=0;exitDy=0;entryX=0.53;entryY=-0.028;entryDx=0;entryDy=0;strokeColor=#FF0000;entryPerimeter=0;" edge="1" parent="WIyWlLk6GJQsqaUBKTNV-1" source="EmjIf0o4EKdm99o1xQy6-64" target="EmjIf0o4EKdm99o1xQy6-6">
          <mxGeometry x="-0.4747" relative="1" as="geometry">
            <mxPoint as="offset" />
          </mxGeometry>
        </mxCell>
        <mxCell id="f3Tv7JB4kyNmLcIMs9Kd-16" value="YES" style="edgeStyle=orthogonalEdgeStyle;rounded=0;orthogonalLoop=1;jettySize=auto;html=1;strokeColor=#FF3333;" edge="1" parent="WIyWlLk6GJQsqaUBKTNV-1" source="EmjIf0o4EKdm99o1xQy6-64" target="f3Tv7JB4kyNmLcIMs9Kd-0">
          <mxGeometry x="-0.4689" relative="1" as="geometry">
            <mxPoint as="offset" />
          </mxGeometry>
        </mxCell>
        <mxCell id="EmjIf0o4EKdm99o1xQy6-64" value="과거 &lt;br&gt;구매 내역&lt;br&gt;존재 여부" style="rhombus;whiteSpace=wrap;html=1;rounded=1;" vertex="1" parent="WIyWlLk6GJQsqaUBKTNV-1">
          <mxGeometry x="-993" y="660" width="96" height="80" as="geometry" />
        </mxCell>
        <mxCell id="w7Ox92A5aqky2tJf7LNV-359" value="NO" style="edgeStyle=orthogonalEdgeStyle;rounded=0;orthogonalLoop=1;jettySize=auto;html=1;entryX=1;entryY=0.5;entryDx=0;entryDy=0;strokeColor=#FF3333;" edge="1" parent="WIyWlLk6GJQsqaUBKTNV-1" source="EmjIf0o4EKdm99o1xQy6-66" target="EmjIf0o4EKdm99o1xQy6-29">
          <mxGeometry x="-0.8797" relative="1" as="geometry">
            <Array as="points">
              <mxPoint x="560" y="1450" />
              <mxPoint x="560" y="1110" />
            </Array>
            <mxPoint as="offset" />
          </mxGeometry>
        </mxCell>
        <mxCell id="w7Ox92A5aqky2tJf7LNV-388" value="YES" style="edgeStyle=orthogonalEdgeStyle;rounded=0;orthogonalLoop=1;jettySize=auto;html=1;entryX=0.25;entryY=0;entryDx=0;entryDy=0;strokeColor=#FF3333;" edge="1" parent="WIyWlLk6GJQsqaUBKTNV-1" source="EmjIf0o4EKdm99o1xQy6-66" target="w7Ox92A5aqky2tJf7LNV-319">
          <mxGeometry x="-0.8216" relative="1" as="geometry">
            <Array as="points">
              <mxPoint x="460" y="1550" />
              <mxPoint x="627" y="1550" />
            </Array>
            <mxPoint as="offset" />
          </mxGeometry>
        </mxCell>
        <mxCell id="EmjIf0o4EKdm99o1xQy6-66" value="수거 가능&lt;br&gt;날짜 선택" style="rhombus;whiteSpace=wrap;html=1;rounded=1;fillColor=default;" vertex="1" parent="WIyWlLk6GJQsqaUBKTNV-1">
          <mxGeometry x="410" y="1415" width="100" height="80" as="geometry" />
        </mxCell>
        <mxCell id="EmjIf0o4EKdm99o1xQy6-75" value="" style="edgeStyle=orthogonalEdgeStyle;rounded=0;orthogonalLoop=1;jettySize=auto;html=1;" edge="1" parent="WIyWlLk6GJQsqaUBKTNV-1">
          <mxGeometry relative="1" as="geometry" />
        </mxCell>
        <mxCell id="mL5LW55gpTMhC8oxr1yt-6" value="" style="endArrow=none;html=1;rounded=0;" edge="1" parent="WIyWlLk6GJQsqaUBKTNV-1" target="mL5LW55gpTMhC8oxr1yt-1">
          <mxGeometry width="50" height="50" relative="1" as="geometry">
            <mxPoint x="1241.1454545454544" y="220" as="sourcePoint" />
            <mxPoint x="1240" y="-70" as="targetPoint" />
          </mxGeometry>
        </mxCell>
        <mxCell id="3d2tBKjzDwxo3XAQTUSo-304" value="" style="endArrow=none;html=1;rounded=0;" edge="1" parent="WIyWlLk6GJQsqaUBKTNV-1" source="mL5LW55gpTMhC8oxr1yt-10" target="mL5LW55gpTMhC8oxr1yt-1">
          <mxGeometry width="50" height="50" relative="1" as="geometry">
            <mxPoint x="1240" y="1940" as="sourcePoint" />
            <mxPoint x="1241" y="220" as="targetPoint" />
          </mxGeometry>
        </mxCell>
        <mxCell id="mL5LW55gpTMhC8oxr1yt-1" value="해지 신청 데이터" style="rounded=0;whiteSpace=wrap;html=1;fillColor=#fff2cc;strokeColor=#d6b656;" vertex="1" parent="WIyWlLk6GJQsqaUBKTNV-1">
          <mxGeometry x="1185" y="720" width="120" height="60" as="geometry" />
        </mxCell>
        <mxCell id="3d2tBKjzDwxo3XAQTUSo-309" value="USE" style="edgeStyle=orthogonalEdgeStyle;rounded=0;orthogonalLoop=1;jettySize=auto;html=1;dashed=1;strokeColor=#7F00FF;fillColor=#ffe6cc;" edge="1" parent="WIyWlLk6GJQsqaUBKTNV-1" source="mL5LW55gpTMhC8oxr1yt-10" target="hfUMV4JjxT8LaMkukJHo-106">
          <mxGeometry x="-0.5758" relative="1" as="geometry">
            <mxPoint as="offset" />
          </mxGeometry>
        </mxCell>
        <mxCell id="3d2tBKjzDwxo3XAQTUSo-306" value="USE" style="edgeStyle=orthogonalEdgeStyle;rounded=0;orthogonalLoop=1;jettySize=auto;html=1;dashed=1;strokeColor=#7F00FF;fillColor=#ffe6cc;" edge="1" parent="WIyWlLk6GJQsqaUBKTNV-1" source="mL5LW55gpTMhC8oxr1yt-1">
          <mxGeometry x="-0.8586" relative="1" as="geometry">
            <mxPoint x="2570" y="970" as="targetPoint" />
            <mxPoint as="offset" />
          </mxGeometry>
        </mxCell>
        <mxCell id="3d2tBKjzDwxo3XAQTUSo-310" value="" style="endArrow=none;html=1;rounded=0;" edge="1" parent="WIyWlLk6GJQsqaUBKTNV-1" target="mL5LW55gpTMhC8oxr1yt-10">
          <mxGeometry width="50" height="50" relative="1" as="geometry">
            <mxPoint x="1240" y="1940" as="sourcePoint" />
            <mxPoint x="1245" y="780" as="targetPoint" />
          </mxGeometry>
        </mxCell>
        <mxCell id="mL5LW55gpTMhC8oxr1yt-10" value="수거신청, 배출 데이터" style="rounded=0;whiteSpace=wrap;html=1;fillColor=#fff2cc;strokeColor=#d6b656;" vertex="1" parent="WIyWlLk6GJQsqaUBKTNV-1">
          <mxGeometry x="1185" y="970" width="120" height="60" as="geometry" />
        </mxCell>
        <mxCell id="3d2tBKjzDwxo3XAQTUSo-312" value="RETURN" style="edgeStyle=orthogonalEdgeStyle;rounded=0;orthogonalLoop=1;jettySize=auto;html=1;strokeColor=#7F00FF;dashed=1;entryX=0.667;entryY=1;entryDx=0;entryDy=0;entryPerimeter=0;" edge="1" parent="WIyWlLk6GJQsqaUBKTNV-1" source="3d2tBKjzDwxo3XAQTUSo-134" target="hfUMV4JjxT8LaMkukJHo-342">
          <mxGeometry x="0.8596" relative="1" as="geometry">
            <mxPoint x="2300" y="1730" as="sourcePoint" />
            <mxPoint x="2960" y="830" as="targetPoint" />
            <Array as="points">
              <mxPoint x="2300" y="1960" />
              <mxPoint x="2960" y="1960" />
            </Array>
            <mxPoint as="offset" />
          </mxGeometry>
        </mxCell>
        <mxCell id="f3Tv7JB4kyNmLcIMs9Kd-14" value="USE" style="edgeStyle=orthogonalEdgeStyle;rounded=0;orthogonalLoop=1;jettySize=auto;html=1;entryX=0.75;entryY=0;entryDx=0;entryDy=0;dashed=1;strokeColor=#7F00FF;" edge="1" parent="WIyWlLk6GJQsqaUBKTNV-1" source="hfUMV4JjxT8LaMkukJHo-342" target="hfUMV4JjxT8LaMkukJHo-106">
          <mxGeometry x="-0.8966" relative="1" as="geometry">
            <mxPoint as="offset" />
          </mxGeometry>
        </mxCell>
        <mxCell id="hfUMV4JjxT8LaMkukJHo-342" value="수거지 명단 정보" style="rounded=0;whiteSpace=wrap;html=1;fillColor=#fff2cc;strokeColor=#d6b656;" vertex="1" parent="WIyWlLk6GJQsqaUBKTNV-1">
          <mxGeometry x="2880" y="780" width="120" height="40" as="geometry" />
        </mxCell>
        <mxCell id="f3Tv7JB4kyNmLcIMs9Kd-1" value="YES&lt;br&gt;(대기)" style="edgeStyle=orthogonalEdgeStyle;rounded=0;orthogonalLoop=1;jettySize=auto;html=1;exitX=0.499;exitY=0.968;exitDx=0;exitDy=0;exitPerimeter=0;strokeColor=#FF3333;" edge="1" parent="WIyWlLk6GJQsqaUBKTNV-1" source="f3Tv7JB4kyNmLcIMs9Kd-0" target="EmjIf0o4EKdm99o1xQy6-60">
          <mxGeometry x="-0.8707" relative="1" as="geometry">
            <mxPoint as="offset" />
          </mxGeometry>
        </mxCell>
        <mxCell id="f3Tv7JB4kyNmLcIMs9Kd-2" value="NO&lt;br&gt;(해지)" style="edgeStyle=orthogonalEdgeStyle;rounded=0;orthogonalLoop=1;jettySize=auto;html=1;exitX=0.034;exitY=0.494;exitDx=0;exitDy=0;exitPerimeter=0;strokeColor=#FF3333;" edge="1" parent="WIyWlLk6GJQsqaUBKTNV-1" source="f3Tv7JB4kyNmLcIMs9Kd-0">
          <mxGeometry x="-0.9071" relative="1" as="geometry">
            <mxPoint x="-1120" y="840" as="sourcePoint" />
            <mxPoint x="-200" y="790" as="targetPoint" />
            <Array as="points">
              <mxPoint x="-1120" y="840" />
              <mxPoint x="-1120" y="580" />
              <mxPoint x="-200" y="580" />
              <mxPoint x="-200" y="760" />
            </Array>
            <mxPoint as="offset" />
          </mxGeometry>
        </mxCell>
        <mxCell id="f3Tv7JB4kyNmLcIMs9Kd-0" value="내역 확인" style="rhombus;whiteSpace=wrap;html=1;rounded=1;" vertex="1" parent="WIyWlLk6GJQsqaUBKTNV-1">
          <mxGeometry x="-1118" y="800" width="96" height="80" as="geometry" />
        </mxCell>
        <mxCell id="w7Ox92A5aqky2tJf7LNV-346" value="" style="edgeStyle=orthogonalEdgeStyle;rounded=0;orthogonalLoop=1;jettySize=auto;html=1;" edge="1" parent="WIyWlLk6GJQsqaUBKTNV-1" source="w7Ox92A5aqky2tJf7LNV-319" target="EmjIf0o4EKdm99o1xQy6-46">
          <mxGeometry relative="1" as="geometry" />
        </mxCell>
        <mxCell id="w7Ox92A5aqky2tJf7LNV-319" value="" style="whiteSpace=wrap;html=1;rounded=0;shadow=0;comic=0;labelBackgroundColor=none;strokeWidth=1;fillColor=#000000;fontFamily=Verdana;fontSize=12;align=center;rotation=0;" vertex="1" parent="WIyWlLk6GJQsqaUBKTNV-1">
          <mxGeometry x="565" y="1720" width="250" height="10" as="geometry" />
        </mxCell>
        <mxCell id="w7Ox92A5aqky2tJf7LNV-329" value="YES" style="edgeStyle=orthogonalEdgeStyle;rounded=0;orthogonalLoop=1;jettySize=auto;html=1;strokeColor=#FF3333;entryX=0.5;entryY=0;entryDx=0;entryDy=0;" edge="1" parent="WIyWlLk6GJQsqaUBKTNV-1" source="w7Ox92A5aqky2tJf7LNV-322" target="EmjIf0o4EKdm99o1xQy6-66">
          <mxGeometry relative="1" as="geometry">
            <mxPoint x="460" y="1435" as="targetPoint" />
          </mxGeometry>
        </mxCell>
        <mxCell id="w7Ox92A5aqky2tJf7LNV-358" value="NO" style="edgeStyle=orthogonalEdgeStyle;rounded=0;orthogonalLoop=1;jettySize=auto;html=1;entryX=1.017;entryY=0.807;entryDx=0;entryDy=0;entryPerimeter=0;strokeColor=#FF3333;" edge="1" parent="WIyWlLk6GJQsqaUBKTNV-1" source="w7Ox92A5aqky2tJf7LNV-322" target="EmjIf0o4EKdm99o1xQy6-29">
          <mxGeometry x="-0.8518" relative="1" as="geometry">
            <Array as="points">
              <mxPoint x="550" y="1330" />
              <mxPoint x="550" y="1128" />
              <mxPoint x="530" y="1128" />
            </Array>
            <mxPoint as="offset" />
          </mxGeometry>
        </mxCell>
        <mxCell id="w7Ox92A5aqky2tJf7LNV-322" value="수거 가능&lt;br&gt;매수 선택" style="rhombus;whiteSpace=wrap;html=1;rounded=1;" vertex="1" parent="WIyWlLk6GJQsqaUBKTNV-1">
          <mxGeometry x="410" y="1290" width="100" height="80" as="geometry" />
        </mxCell>
        <mxCell id="EmjIf0o4EKdm99o1xQy6-17" value="해지 신청 &lt;br&gt;완료" style="ellipse;whiteSpace=wrap;html=1;rounded=1;fillColor=#000000;fontColor=#FFFFFF;" vertex="1" parent="WIyWlLk6GJQsqaUBKTNV-1">
          <mxGeometry x="-220" y="1830" width="80" height="80" as="geometry" />
        </mxCell>
        <mxCell id="w7Ox92A5aqky2tJf7LNV-334" value="수거요청 팝업" style="whiteSpace=wrap;html=1;rounded=1;" vertex="1" parent="WIyWlLk6GJQsqaUBKTNV-1">
          <mxGeometry x="630" y="1160" width="120" height="60" as="geometry" />
        </mxCell>
        <mxCell id="w7Ox92A5aqky2tJf7LNV-349" value="YES" style="edgeStyle=orthogonalEdgeStyle;rounded=0;orthogonalLoop=1;jettySize=auto;html=1;strokeColor=#FF3333;" edge="1" parent="WIyWlLk6GJQsqaUBKTNV-1" source="w7Ox92A5aqky2tJf7LNV-336" target="w7Ox92A5aqky2tJf7LNV-334">
          <mxGeometry relative="1" as="geometry" />
        </mxCell>
        <mxCell id="w7Ox92A5aqky2tJf7LNV-393" value="NO" style="edgeStyle=orthogonalEdgeStyle;rounded=0;orthogonalLoop=1;jettySize=auto;html=1;strokeColor=#FF3333;" edge="1" parent="WIyWlLk6GJQsqaUBKTNV-1" source="w7Ox92A5aqky2tJf7LNV-336" target="w7Ox92A5aqky2tJf7LNV-352">
          <mxGeometry x="-0.6552" relative="1" as="geometry">
            <mxPoint x="1" as="offset" />
          </mxGeometry>
        </mxCell>
        <mxCell id="w7Ox92A5aqky2tJf7LNV-336" value="수거 수정 &lt;br&gt;여부" style="rhombus;whiteSpace=wrap;html=1;rounded=1;" vertex="1" parent="WIyWlLk6GJQsqaUBKTNV-1">
          <mxGeometry x="640" y="1030" width="100" height="80" as="geometry" />
        </mxCell>
        <mxCell id="w7Ox92A5aqky2tJf7LNV-340" value="" style="edgeStyle=orthogonalEdgeStyle;rounded=0;orthogonalLoop=1;jettySize=auto;html=1;" edge="1" parent="WIyWlLk6GJQsqaUBKTNV-1" target="w7Ox92A5aqky2tJf7LNV-343">
          <mxGeometry relative="1" as="geometry">
            <mxPoint x="690" y="1220" as="sourcePoint" />
          </mxGeometry>
        </mxCell>
        <mxCell id="w7Ox92A5aqky2tJf7LNV-342" value="NO" style="edgeStyle=orthogonalEdgeStyle;rounded=0;orthogonalLoop=1;jettySize=auto;html=1;strokeColor=#FF3333;entryX=1;entryY=0.75;entryDx=0;entryDy=0;" edge="1" parent="WIyWlLk6GJQsqaUBKTNV-1" source="w7Ox92A5aqky2tJf7LNV-343" target="w7Ox92A5aqky2tJf7LNV-334">
          <mxGeometry x="-0.6649" relative="1" as="geometry">
            <mxPoint x="1020" y="1230" as="targetPoint" />
            <Array as="points">
              <mxPoint x="790" y="1330" />
              <mxPoint x="790" y="1205" />
            </Array>
            <mxPoint as="offset" />
          </mxGeometry>
        </mxCell>
        <mxCell id="w7Ox92A5aqky2tJf7LNV-355" value="YES" style="edgeStyle=orthogonalEdgeStyle;rounded=0;orthogonalLoop=1;jettySize=auto;html=1;strokeColor=#FF3333;" edge="1" parent="WIyWlLk6GJQsqaUBKTNV-1" source="w7Ox92A5aqky2tJf7LNV-343" target="w7Ox92A5aqky2tJf7LNV-344">
          <mxGeometry relative="1" as="geometry" />
        </mxCell>
        <mxCell id="w7Ox92A5aqky2tJf7LNV-343" value="수거 가능&lt;br&gt;&amp;nbsp;매수 선택" style="rhombus;whiteSpace=wrap;html=1;rounded=1;" vertex="1" parent="WIyWlLk6GJQsqaUBKTNV-1">
          <mxGeometry x="640" y="1265" width="100" height="80" as="geometry" />
        </mxCell>
        <mxCell id="w7Ox92A5aqky2tJf7LNV-360" value="NO" style="edgeStyle=orthogonalEdgeStyle;rounded=0;orthogonalLoop=1;jettySize=auto;html=1;entryX=1;entryY=0.25;entryDx=0;entryDy=0;strokeColor=#FF3333;" edge="1" parent="WIyWlLk6GJQsqaUBKTNV-1" source="w7Ox92A5aqky2tJf7LNV-344" target="w7Ox92A5aqky2tJf7LNV-334">
          <mxGeometry x="-0.8497" relative="1" as="geometry">
            <Array as="points">
              <mxPoint x="810" y="1445" />
              <mxPoint x="810" y="1175" />
            </Array>
            <mxPoint x="-1" as="offset" />
          </mxGeometry>
        </mxCell>
        <mxCell id="w7Ox92A5aqky2tJf7LNV-387" value="YES" style="edgeStyle=orthogonalEdgeStyle;rounded=0;orthogonalLoop=1;jettySize=auto;html=1;entryX=0.5;entryY=0;entryDx=0;entryDy=0;strokeColor=#FF3333;" edge="1" parent="WIyWlLk6GJQsqaUBKTNV-1" source="w7Ox92A5aqky2tJf7LNV-344" target="w7Ox92A5aqky2tJf7LNV-319">
          <mxGeometry x="-0.7255" relative="1" as="geometry">
            <mxPoint as="offset" />
          </mxGeometry>
        </mxCell>
        <mxCell id="w7Ox92A5aqky2tJf7LNV-344" value="수거 가능&lt;br&gt;날짜 선택" style="rhombus;whiteSpace=wrap;html=1;rounded=1;fillColor=default;" vertex="1" parent="WIyWlLk6GJQsqaUBKTNV-1">
          <mxGeometry x="640" y="1385" width="100" height="80" as="geometry" />
        </mxCell>
        <mxCell id="w7Ox92A5aqky2tJf7LNV-352" value="수정 불가" style="ellipse;whiteSpace=wrap;html=1;aspect=fixed;fillColor=#000000;fontColor=#FFFFFF;" vertex="1" parent="WIyWlLk6GJQsqaUBKTNV-1">
          <mxGeometry x="850" y="1210" width="80" height="80" as="geometry" />
        </mxCell>
        <mxCell id="w7Ox92A5aqky2tJf7LNV-364" value="YES" style="edgeStyle=orthogonalEdgeStyle;rounded=0;orthogonalLoop=1;jettySize=auto;html=1;strokeColor=#FF3333;" edge="1" parent="WIyWlLk6GJQsqaUBKTNV-1" source="w7Ox92A5aqky2tJf7LNV-362" target="EmjIf0o4EKdm99o1xQy6-30">
          <mxGeometry x="-0.4286" relative="1" as="geometry">
            <mxPoint as="offset" />
          </mxGeometry>
        </mxCell>
        <mxCell id="w7Ox92A5aqky2tJf7LNV-365" value="NO" style="edgeStyle=orthogonalEdgeStyle;rounded=0;orthogonalLoop=1;jettySize=auto;html=1;entryX=0.5;entryY=1;entryDx=0;entryDy=0;strokeColor=#FF3333;" edge="1" parent="WIyWlLk6GJQsqaUBKTNV-1" source="w7Ox92A5aqky2tJf7LNV-362" target="EmjIf0o4EKdm99o1xQy6-19">
          <mxGeometry x="-0.84" relative="1" as="geometry">
            <mxPoint x="1" as="offset" />
          </mxGeometry>
        </mxCell>
        <mxCell id="w7Ox92A5aqky2tJf7LNV-362" value="잔여 회수권&lt;br&gt;환불 요청" style="rhombus;whiteSpace=wrap;html=1;rounded=1;" vertex="1" parent="WIyWlLk6GJQsqaUBKTNV-1">
          <mxGeometry x="-230" y="1000" width="100" height="80" as="geometry" />
        </mxCell>
        <mxCell id="w7Ox92A5aqky2tJf7LNV-366" value="" style="edgeStyle=orthogonalEdgeStyle;rounded=0;orthogonalLoop=1;jettySize=auto;html=1;strokeColor=#3333FF;entryX=0;entryY=0.5;entryDx=0;entryDy=0;" edge="1" parent="WIyWlLk6GJQsqaUBKTNV-1" source="EmjIf0o4EKdm99o1xQy6-46" target="EmjIf0o4EKdm99o1xQy6-3">
          <mxGeometry relative="1" as="geometry">
            <Array as="points">
              <mxPoint x="695" y="1990" />
              <mxPoint x="-1530" y="1990" />
              <mxPoint x="-1530" y="130" />
            </Array>
            <mxPoint x="656" y="1870" as="sourcePoint" />
            <mxPoint x="-950" y="1970" as="targetPoint" />
          </mxGeometry>
        </mxCell>
        <mxCell id="EmjIf0o4EKdm99o1xQy6-55" value="결제 완료" style="ellipse;whiteSpace=wrap;html=1;rounded=1;fillColor=#000000;fontColor=#FFFFFF;" vertex="1" parent="WIyWlLk6GJQsqaUBKTNV-1">
          <mxGeometry x="-860" y="1830" width="80" height="80" as="geometry" />
        </mxCell>
        <mxCell id="w7Ox92A5aqky2tJf7LNV-389" style="edgeStyle=orthogonalEdgeStyle;rounded=0;orthogonalLoop=1;jettySize=auto;html=1;" edge="1" parent="WIyWlLk6GJQsqaUBKTNV-1" source="w7Ox92A5aqky2tJf7LNV-369" target="w7Ox92A5aqky2tJf7LNV-372">
          <mxGeometry relative="1" as="geometry" />
        </mxCell>
        <mxCell id="w7Ox92A5aqky2tJf7LNV-369" value="배출 확인" style="rhombus;whiteSpace=wrap;html=1;rounded=1;" vertex="1" parent="WIyWlLk6GJQsqaUBKTNV-1">
          <mxGeometry x="980" y="915" width="100" height="80" as="geometry" />
        </mxCell>
        <mxCell id="w7Ox92A5aqky2tJf7LNV-394" value="RETURN" style="edgeStyle=orthogonalEdgeStyle;rounded=0;orthogonalLoop=1;jettySize=auto;html=1;dashed=1;strokeColor=#9933FF;" edge="1" parent="WIyWlLk6GJQsqaUBKTNV-1" source="w7Ox92A5aqky2tJf7LNV-372" target="mL5LW55gpTMhC8oxr1yt-10">
          <mxGeometry x="-0.3016" relative="1" as="geometry">
            <Array as="points">
              <mxPoint x="1120" y="1250" />
              <mxPoint x="1120" y="980" />
            </Array>
            <mxPoint y="1" as="offset" />
          </mxGeometry>
        </mxCell>
        <mxCell id="w7Ox92A5aqky2tJf7LNV-372" value="배출 완료" style="ellipse;whiteSpace=wrap;html=1;aspect=fixed;fillColor=#000000;fontColor=#FFFFFF;" vertex="1" parent="WIyWlLk6GJQsqaUBKTNV-1">
          <mxGeometry x="990" y="1210" width="80" height="80" as="geometry" />
        </mxCell>
        <mxCell id="w7Ox92A5aqky2tJf7LNV-390" style="edgeStyle=orthogonalEdgeStyle;rounded=0;orthogonalLoop=1;jettySize=auto;html=1;" edge="1" parent="WIyWlLk6GJQsqaUBKTNV-1" source="w7Ox92A5aqky2tJf7LNV-384" target="EmjIf0o4EKdm99o1xQy6-24">
          <mxGeometry relative="1" as="geometry">
            <Array as="points">
              <mxPoint x="590" y="900" />
              <mxPoint x="460" y="900" />
            </Array>
          </mxGeometry>
        </mxCell>
        <mxCell id="w7Ox92A5aqky2tJf7LNV-391" value="" style="edgeStyle=orthogonalEdgeStyle;rounded=0;orthogonalLoop=1;jettySize=auto;html=1;" edge="1" parent="WIyWlLk6GJQsqaUBKTNV-1" source="w7Ox92A5aqky2tJf7LNV-384" target="EmjIf0o4EKdm99o1xQy6-51">
          <mxGeometry relative="1" as="geometry" />
        </mxCell>
        <mxCell id="w7Ox92A5aqky2tJf7LNV-392" style="edgeStyle=orthogonalEdgeStyle;rounded=0;orthogonalLoop=1;jettySize=auto;html=1;" edge="1" parent="WIyWlLk6GJQsqaUBKTNV-1" source="w7Ox92A5aqky2tJf7LNV-384" target="w7Ox92A5aqky2tJf7LNV-369">
          <mxGeometry relative="1" as="geometry">
            <Array as="points">
              <mxPoint x="780" y="900" />
              <mxPoint x="1030" y="900" />
            </Array>
          </mxGeometry>
        </mxCell>
        <mxCell id="w7Ox92A5aqky2tJf7LNV-384" value="" style="whiteSpace=wrap;html=1;rounded=0;shadow=0;comic=0;labelBackgroundColor=none;strokeWidth=1;fillColor=#000000;fontFamily=Verdana;fontSize=12;align=center;rotation=0;" vertex="1" parent="WIyWlLk6GJQsqaUBKTNV-1">
          <mxGeometry x="565" y="870" width="250" height="10" as="geometry" />
        </mxCell>
      </root>
    </mxGraphModel>
  </diagram>
</mxfile>
